{"title":"Battle.in.Seattle.2007.DVDRIP-ZEKTORM","uid":4673270,"size":733964262,"categoryP":"video","categoryS":"movies","magnet":"?xt=urn:btih:85de1e7ad3a153b7d8b41308853c19ea66efaa99&amp;dn=Battle.in.Seattle.2007.DVDRIP-ZEKTORM&amp;tr=udp%3A%2F%2Ftracker.openbittorrent.com%3A80&amp;tr=udp%3A%2F%2Fopen.demonii.com%3A1337&amp;tr=udp%3A%2F%2Ftracker.coppersurfer.tk%3A6969&amp;tr=udp%3A%2F%2Fexodus.desync.com%3A6969","seeders":1,"leechers":1,"uploader":"blowley","files":2,"time":1232810799,"description":"Title                            : Battle in Seattle\nYear                             : 2007\nGenre                            : Action | Drama\niMDB Rate                        : User Rating: 7.1/10   2,020 votes\niMDB URL                         : http://www.imdb.com/title/tt0850253/\nAwards                           : 4 nominations\n\nComplete name                    : Battle.in.Seattle.2007.DVDRIP-ZEKTORM.mp4\nFormat                           : MPEG-4\nFormat profile                   : Base Media\nCodec ID                         : isom\nFile size                        : 700 MiB\nDuration                         : 1h 39mn\nOverall bit rate                 : 986 Kbps\nSource                           : DVD NTSC\n\nVideo\nFormat                           : AVC\nFormat/Info                      : Advanced Video Codec\nFormat profile                   : &lt;a class=&quot;__cf_email__&quot; href=&quot;/cdn-cgi/l/email-protection&quot; data-cfemail=&quot;fdb5949a95bdb1c9d3cc&quot;&gt;[email&amp;#160;protected]&lt;/a&gt;&lt;script cf-hash='f9e31' type=&quot;text/javascript&quot;&gt;\n/* &lt;![CDATA[ */!function(){try{var t=&quot;currentScript&quot;in document?document.currentScript:function(){for(var t=document.getElementsByTagName(&quot;script&quot;),e=t.length;e--;)if(t[e].getAttribute(&quot;cf-hash&quot;))return t[e]}();if(t&amp;&amp;t.previousSibling){var e,r,n,i,c=t.previousSibling,a=c.getAttribute(&quot;data-cfemail&quot;);if(a){for(e=&quot;&quot;,r=parseInt(a.substr(0,2),16),n=2;a.length-n;n+=2)i=parseInt(a.substr(n,2),16)^r,e+=String.fromCharCode(i);e=document.createTextNode(e),c.parentNode.replaceChild(e,c)}}}catch(u){}}();/* ]]&gt; */&lt;/script&gt;\nFormat settings, CABAC           : Yes\nFormat settings, ReFrames        : 10 frames\nCodec ID                         : avc1\nCodec ID/Info                    : Advanced Video Coding\nDuration                         : 1h 39mn\nBit rate mode                    : Variable\nBit rate                         : 889 Kbps\nMaximum bit rate                 : 4691 Kbps\nWidth                            : 720 pixels\nHeight                           : 464 pixels\nDisplay aspect ratio             : 1.881\nFrame rate mode                  : Constant\nFrame rate                       : 29.970 fps\nResolution                       : 24 bits\nColorimetry                      : 4:2:0\nScan type                        : Progressive\nBits/(Pixel*Frame)               : 0.089\nStream size                      : 631 MiB (90%)\nTitle                            : Video\nWriting library                  : x264 core 60 r900 a9af942\n\nAudio\nFormat                           : AAC\nFormat/Info                      : Advanced Audio Codec\nFormat version                   : Version 4\nFormat profile                   : LC\nFormat settings, SBR             : Yes\nFormat settings, PS              : No\nCodec ID                         : 40\nDuration                         : 1h 39mn\nBit rate mode                    : Variable\nBit rate                         : 93.9 Kbps\nMaximum bit rate                 : 110 Kbps\nChannel(s)                       : 2 channels\nChannel positions                : L R\nSampling rate                    : 48.0 KHz\nResolution                       : 16 bits\nStream size                      : 66.6 MiB (10%)\nTitle                            : English\nLanguage                         : English\n\nNotes                            : Convert to DVD with Nero","torrent":{"xt":"urn:btih:85de1e7ad3a153b7d8b41308853c19ea66efaa99","amp;dn":"Battle.in.Seattle.2007.DVDRIP-ZEKTORM","amp;tr":["udp%3A%2F%2Ftracker.openbittorrent.com%3A80","udp%3A%2F%2Fopen.demonii.com%3A1337","udp%3A%2F%2Ftracker.coppersurfer.tk%3A6969","udp%3A%2F%2Fexodus.desync.com%3A6969"],"infoHash":"85de1e7ad3a153b7d8b41308853c19ea66efaa99","infoHashBuffer":{"type":"Buffer","data":[133,222,30,122,211,161,83,183,216,180,19,8,133,60,25,234,102,239,170,153]},"announce":[],"urlList":[]}}